%TF.GenerationSoftware,KiCad,Pcbnew,9.0.3*%
%TF.CreationDate,2025-07-13T23:11:11-04:00*%
%TF.ProjectId,Hackapad,4861636b-6170-4616-942e-6b696361645f,rev?*%
%TF.SameCoordinates,Original*%
%TF.FileFunction,Legend,Bot*%
%TF.FilePolarity,Positive*%
%FSLAX46Y46*%
G04 Gerber Fmt 4.6, Leading zero omitted, Abs format (unit mm)*
G04 Created by KiCad (PCBNEW 9.0.3) date 2025-07-13 23:11:11*
%MOMM*%
%LPD*%
G01*
G04 APERTURE LIST*
%ADD10C,0.100000*%
G04 APERTURE END LIST*
D10*
X73610103Y-39353669D02*
X72943437Y-40353669D01*
X72943437Y-39353669D02*
X73610103Y-40353669D01*
X72562484Y-40353669D02*
X72562484Y-39353669D01*
X72133913Y-40067954D02*
X71657723Y-40067954D01*
X72229151Y-40353669D02*
X71895818Y-39353669D01*
X71895818Y-39353669D02*
X71562485Y-40353669D01*
X71038675Y-39353669D02*
X70848199Y-39353669D01*
X70848199Y-39353669D02*
X70752961Y-39401288D01*
X70752961Y-39401288D02*
X70657723Y-39496526D01*
X70657723Y-39496526D02*
X70610104Y-39687002D01*
X70610104Y-39687002D02*
X70610104Y-40020335D01*
X70610104Y-40020335D02*
X70657723Y-40210811D01*
X70657723Y-40210811D02*
X70752961Y-40306050D01*
X70752961Y-40306050D02*
X70848199Y-40353669D01*
X70848199Y-40353669D02*
X71038675Y-40353669D01*
X71038675Y-40353669D02*
X71133913Y-40306050D01*
X71133913Y-40306050D02*
X71229151Y-40210811D01*
X71229151Y-40210811D02*
X71276770Y-40020335D01*
X71276770Y-40020335D02*
X71276770Y-39687002D01*
X71276770Y-39687002D02*
X71229151Y-39496526D01*
X71229151Y-39496526D02*
X71133913Y-39401288D01*
X71133913Y-39401288D02*
X71038675Y-39353669D01*
X69419627Y-40353669D02*
X69419627Y-39353669D01*
X69419627Y-39829859D02*
X68848199Y-39829859D01*
X68848199Y-40353669D02*
X68848199Y-39353669D01*
X67991056Y-40306050D02*
X68086294Y-40353669D01*
X68086294Y-40353669D02*
X68276770Y-40353669D01*
X68276770Y-40353669D02*
X68372008Y-40306050D01*
X68372008Y-40306050D02*
X68419627Y-40210811D01*
X68419627Y-40210811D02*
X68419627Y-39829859D01*
X68419627Y-39829859D02*
X68372008Y-39734621D01*
X68372008Y-39734621D02*
X68276770Y-39687002D01*
X68276770Y-39687002D02*
X68086294Y-39687002D01*
X68086294Y-39687002D02*
X67991056Y-39734621D01*
X67991056Y-39734621D02*
X67943437Y-39829859D01*
X67943437Y-39829859D02*
X67943437Y-39925097D01*
X67943437Y-39925097D02*
X68419627Y-40020335D01*
X67514865Y-40353669D02*
X67514865Y-39687002D01*
X67514865Y-39877478D02*
X67467246Y-39782240D01*
X67467246Y-39782240D02*
X67419627Y-39734621D01*
X67419627Y-39734621D02*
X67324389Y-39687002D01*
X67324389Y-39687002D02*
X67229151Y-39687002D01*
X66514865Y-40306050D02*
X66610103Y-40353669D01*
X66610103Y-40353669D02*
X66800579Y-40353669D01*
X66800579Y-40353669D02*
X66895817Y-40306050D01*
X66895817Y-40306050D02*
X66943436Y-40210811D01*
X66943436Y-40210811D02*
X66943436Y-39829859D01*
X66943436Y-39829859D02*
X66895817Y-39734621D01*
X66895817Y-39734621D02*
X66800579Y-39687002D01*
X66800579Y-39687002D02*
X66610103Y-39687002D01*
X66610103Y-39687002D02*
X66514865Y-39734621D01*
X66514865Y-39734621D02*
X66467246Y-39829859D01*
X66467246Y-39829859D02*
X66467246Y-39925097D01*
X66467246Y-39925097D02*
X66943436Y-40020335D01*
M02*
