%TF.GenerationSoftware,KiCad,Pcbnew,9.0.3*%
%TF.CreationDate,2025-07-13T23:11:11-04:00*%
%TF.ProjectId,Hackapad,4861636b-6170-4616-942e-6b696361645f,rev?*%
%TF.SameCoordinates,Original*%
%TF.FileFunction,Soldermask,Top*%
%TF.FilePolarity,Negative*%
%FSLAX46Y46*%
G04 Gerber Fmt 4.6, Leading zero omitted, Abs format (unit mm)*
G04 Created by KiCad (PCBNEW 9.0.3) date 2025-07-13 23:11:11*
%MOMM*%
%LPD*%
G01*
G04 APERTURE LIST*
%ADD10C,1.700000*%
%ADD11C,4.000000*%
%ADD12C,2.200000*%
%ADD13C,1.524000*%
G04 APERTURE END LIST*
D10*
%TO.C,SW1*%
X56515000Y-76200000D03*
D11*
X61595000Y-76200000D03*
D10*
X66675000Y-76200000D03*
D12*
X64135000Y-71120000D03*
X57785000Y-73660000D03*
%TD*%
%TO.C,U1*%
G36*
G01*
X62887250Y-27330400D02*
X62887250Y-28549600D01*
G75*
G02*
X62734850Y-28702000I-152400J0D01*
G01*
X60607650Y-28702000D01*
G75*
G02*
X60455250Y-28549600I0J152400D01*
G01*
X60455250Y-27330400D01*
G75*
G02*
X60607650Y-27178000I152400J0D01*
G01*
X62734850Y-27178000D01*
G75*
G02*
X62887250Y-27330400I0J-152400D01*
G01*
G37*
D13*
X62506250Y-27940000D03*
G36*
G01*
X62887250Y-29870400D02*
X62887250Y-31089600D01*
G75*
G02*
X62734850Y-31242000I-152400J0D01*
G01*
X60607650Y-31242000D01*
G75*
G02*
X60455250Y-31089600I0J152400D01*
G01*
X60455250Y-29870400D01*
G75*
G02*
X60607650Y-29718000I152400J0D01*
G01*
X62734850Y-29718000D01*
G75*
G02*
X62887250Y-29870400I0J-152400D01*
G01*
G37*
X62506250Y-30480000D03*
G36*
G01*
X62887250Y-32410400D02*
X62887250Y-33629600D01*
G75*
G02*
X62734850Y-33782000I-152400J0D01*
G01*
X60607650Y-33782000D01*
G75*
G02*
X60455250Y-33629600I0J152400D01*
G01*
X60455250Y-32410400D01*
G75*
G02*
X60607650Y-32258000I152400J0D01*
G01*
X62734850Y-32258000D01*
G75*
G02*
X62887250Y-32410400I0J-152400D01*
G01*
G37*
X62506250Y-33020000D03*
G36*
G01*
X62887250Y-34950400D02*
X62887250Y-36169600D01*
G75*
G02*
X62734850Y-36322000I-152400J0D01*
G01*
X60607650Y-36322000D01*
G75*
G02*
X60455250Y-36169600I0J152400D01*
G01*
X60455250Y-34950400D01*
G75*
G02*
X60607650Y-34798000I152400J0D01*
G01*
X62734850Y-34798000D01*
G75*
G02*
X62887250Y-34950400I0J-152400D01*
G01*
G37*
X62506250Y-35560000D03*
G36*
G01*
X62887250Y-37490400D02*
X62887250Y-38709600D01*
G75*
G02*
X62734850Y-38862000I-152400J0D01*
G01*
X60607650Y-38862000D01*
G75*
G02*
X60455250Y-38709600I0J152400D01*
G01*
X60455250Y-37490400D01*
G75*
G02*
X60607650Y-37338000I152400J0D01*
G01*
X62734850Y-37338000D01*
G75*
G02*
X62887250Y-37490400I0J-152400D01*
G01*
G37*
X62506250Y-38100000D03*
G36*
G01*
X62887250Y-40030400D02*
X62887250Y-41249600D01*
G75*
G02*
X62734850Y-41402000I-152400J0D01*
G01*
X60607650Y-41402000D01*
G75*
G02*
X60455250Y-41249600I0J152400D01*
G01*
X60455250Y-40030400D01*
G75*
G02*
X60607650Y-39878000I152400J0D01*
G01*
X62734850Y-39878000D01*
G75*
G02*
X62887250Y-40030400I0J-152400D01*
G01*
G37*
X62506250Y-40640000D03*
G36*
G01*
X62887250Y-42570400D02*
X62887250Y-43789600D01*
G75*
G02*
X62734850Y-43942000I-152400J0D01*
G01*
X60607650Y-43942000D01*
G75*
G02*
X60455250Y-43789600I0J152400D01*
G01*
X60455250Y-42570400D01*
G75*
G02*
X60607650Y-42418000I152400J0D01*
G01*
X62734850Y-42418000D01*
G75*
G02*
X62887250Y-42570400I0J-152400D01*
G01*
G37*
X62506250Y-43180000D03*
X77746250Y-43180000D03*
G36*
G01*
X77365250Y-43789600D02*
X77365250Y-42570400D01*
G75*
G02*
X77517650Y-42418000I152400J0D01*
G01*
X79644850Y-42418000D01*
G75*
G02*
X79797250Y-42570400I0J-152400D01*
G01*
X79797250Y-43789600D01*
G75*
G02*
X79644850Y-43942000I-152400J0D01*
G01*
X77517650Y-43942000D01*
G75*
G02*
X77365250Y-43789600I0J152400D01*
G01*
G37*
X77746250Y-40640000D03*
G36*
G01*
X77365250Y-41249600D02*
X77365250Y-40030400D01*
G75*
G02*
X77517650Y-39878000I152400J0D01*
G01*
X79644850Y-39878000D01*
G75*
G02*
X79797250Y-40030400I0J-152400D01*
G01*
X79797250Y-41249600D01*
G75*
G02*
X79644850Y-41402000I-152400J0D01*
G01*
X77517650Y-41402000D01*
G75*
G02*
X77365250Y-41249600I0J152400D01*
G01*
G37*
X77746250Y-38100000D03*
G36*
G01*
X77365250Y-38709600D02*
X77365250Y-37490400D01*
G75*
G02*
X77517650Y-37338000I152400J0D01*
G01*
X79644850Y-37338000D01*
G75*
G02*
X79797250Y-37490400I0J-152400D01*
G01*
X79797250Y-38709600D01*
G75*
G02*
X79644850Y-38862000I-152400J0D01*
G01*
X77517650Y-38862000D01*
G75*
G02*
X77365250Y-38709600I0J152400D01*
G01*
G37*
X77746250Y-35560000D03*
G36*
G01*
X77365250Y-36169600D02*
X77365250Y-34950400D01*
G75*
G02*
X77517650Y-34798000I152400J0D01*
G01*
X79644850Y-34798000D01*
G75*
G02*
X79797250Y-34950400I0J-152400D01*
G01*
X79797250Y-36169600D01*
G75*
G02*
X79644850Y-36322000I-152400J0D01*
G01*
X77517650Y-36322000D01*
G75*
G02*
X77365250Y-36169600I0J152400D01*
G01*
G37*
X77746250Y-33020000D03*
G36*
G01*
X77365250Y-33629600D02*
X77365250Y-32410400D01*
G75*
G02*
X77517650Y-32258000I152400J0D01*
G01*
X79644850Y-32258000D01*
G75*
G02*
X79797250Y-32410400I0J-152400D01*
G01*
X79797250Y-33629600D01*
G75*
G02*
X79644850Y-33782000I-152400J0D01*
G01*
X77517650Y-33782000D01*
G75*
G02*
X77365250Y-33629600I0J152400D01*
G01*
G37*
X77746250Y-30480000D03*
G36*
G01*
X77365250Y-31089600D02*
X77365250Y-29870400D01*
G75*
G02*
X77517650Y-29718000I152400J0D01*
G01*
X79644850Y-29718000D01*
G75*
G02*
X79797250Y-29870400I0J-152400D01*
G01*
X79797250Y-31089600D01*
G75*
G02*
X79644850Y-31242000I-152400J0D01*
G01*
X77517650Y-31242000D01*
G75*
G02*
X77365250Y-31089600I0J152400D01*
G01*
G37*
X77746250Y-27940000D03*
G36*
G01*
X77365250Y-28549600D02*
X77365250Y-27330400D01*
G75*
G02*
X77517650Y-27178000I152400J0D01*
G01*
X79644850Y-27178000D01*
G75*
G02*
X79797250Y-27330400I0J-152400D01*
G01*
X79797250Y-28549600D01*
G75*
G02*
X79644850Y-28702000I-152400J0D01*
G01*
X77517650Y-28702000D01*
G75*
G02*
X77365250Y-28549600I0J152400D01*
G01*
G37*
%TD*%
D10*
%TO.C,SW4*%
X75565000Y-76200000D03*
D11*
X80645000Y-76200000D03*
D10*
X85725000Y-76200000D03*
D12*
X83185000Y-71120000D03*
X76835000Y-73660000D03*
%TD*%
D10*
%TO.C,SW2*%
X56515000Y-57150000D03*
D11*
X61595000Y-57150000D03*
D10*
X66675000Y-57150000D03*
D12*
X64135000Y-52070000D03*
X57785000Y-54610000D03*
%TD*%
D10*
%TO.C,SW3*%
X75565000Y-57150000D03*
D11*
X80645000Y-57150000D03*
D10*
X85725000Y-57150000D03*
D12*
X83185000Y-52070000D03*
X76835000Y-54610000D03*
%TD*%
M02*
