%TF.GenerationSoftware,KiCad,Pcbnew,9.0.3*%
%TF.CreationDate,2025-07-13T23:11:11-04:00*%
%TF.ProjectId,Hackapad,4861636b-6170-4616-942e-6b696361645f,rev?*%
%TF.SameCoordinates,Original*%
%TF.FileFunction,Copper,L1,Top*%
%TF.FilePolarity,Positive*%
%FSLAX46Y46*%
G04 Gerber Fmt 4.6, Leading zero omitted, Abs format (unit mm)*
G04 Created by KiCad (PCBNEW 9.0.3) date 2025-07-13 23:11:11*
%MOMM*%
%LPD*%
G01*
G04 APERTURE LIST*
%TA.AperFunction,ComponentPad*%
%ADD10C,2.200000*%
%TD*%
%TA.AperFunction,ComponentPad*%
%ADD11C,1.524000*%
%TD*%
%TA.AperFunction,Conductor*%
%ADD12C,0.200000*%
%TD*%
G04 APERTURE END LIST*
D10*
%TO.P,SW1,1,1*%
%TO.N,Net-(U1-GND)*%
X64135000Y-71120000D03*
%TO.P,SW1,2,2*%
%TO.N,Net-(U1-GPIO26{slash}ADC0{slash}A0)*%
X57785000Y-73660000D03*
%TD*%
%TO.P,U1,1,GPIO26/ADC0/A0*%
%TO.N,Net-(U1-GPIO26{slash}ADC0{slash}A0)*%
%TA.AperFunction,SMDPad,CuDef*%
G36*
G01*
X62887250Y-27330400D02*
X62887250Y-28549600D01*
G75*
G02*
X62734850Y-28702000I-152400J0D01*
G01*
X60607650Y-28702000D01*
G75*
G02*
X60455250Y-28549600I0J152400D01*
G01*
X60455250Y-27330400D01*
G75*
G02*
X60607650Y-27178000I152400J0D01*
G01*
X62734850Y-27178000D01*
G75*
G02*
X62887250Y-27330400I0J-152400D01*
G01*
G37*
%TD.AperFunction*%
D11*
X62506250Y-27940000D03*
%TO.P,U1,2,GPIO27/ADC1/A1*%
%TO.N,unconnected-(U1-GPIO27{slash}ADC1{slash}A1-Pad2)*%
%TA.AperFunction,SMDPad,CuDef*%
G36*
G01*
X62887250Y-29870400D02*
X62887250Y-31089600D01*
G75*
G02*
X62734850Y-31242000I-152400J0D01*
G01*
X60607650Y-31242000D01*
G75*
G02*
X60455250Y-31089600I0J152400D01*
G01*
X60455250Y-29870400D01*
G75*
G02*
X60607650Y-29718000I152400J0D01*
G01*
X62734850Y-29718000D01*
G75*
G02*
X62887250Y-29870400I0J-152400D01*
G01*
G37*
%TD.AperFunction*%
X62506250Y-30480000D03*
%TO.P,U1,3,GPIO28/ADC2/A2*%
%TO.N,unconnected-(U1-GPIO28{slash}ADC2{slash}A2-Pad3)*%
%TA.AperFunction,SMDPad,CuDef*%
G36*
G01*
X62887250Y-32410400D02*
X62887250Y-33629600D01*
G75*
G02*
X62734850Y-33782000I-152400J0D01*
G01*
X60607650Y-33782000D01*
G75*
G02*
X60455250Y-33629600I0J152400D01*
G01*
X60455250Y-32410400D01*
G75*
G02*
X60607650Y-32258000I152400J0D01*
G01*
X62734850Y-32258000D01*
G75*
G02*
X62887250Y-32410400I0J-152400D01*
G01*
G37*
%TD.AperFunction*%
X62506250Y-33020000D03*
%TO.P,U1,4,GPIO29/ADC3/A3*%
%TO.N,unconnected-(U1-GPIO29{slash}ADC3{slash}A3-Pad4)*%
%TA.AperFunction,SMDPad,CuDef*%
G36*
G01*
X62887250Y-34950400D02*
X62887250Y-36169600D01*
G75*
G02*
X62734850Y-36322000I-152400J0D01*
G01*
X60607650Y-36322000D01*
G75*
G02*
X60455250Y-36169600I0J152400D01*
G01*
X60455250Y-34950400D01*
G75*
G02*
X60607650Y-34798000I152400J0D01*
G01*
X62734850Y-34798000D01*
G75*
G02*
X62887250Y-34950400I0J-152400D01*
G01*
G37*
%TD.AperFunction*%
X62506250Y-35560000D03*
%TO.P,U1,5,GPIO6/SDA*%
%TO.N,unconnected-(U1-GPIO6{slash}SDA-Pad5)*%
%TA.AperFunction,SMDPad,CuDef*%
G36*
G01*
X62887250Y-37490400D02*
X62887250Y-38709600D01*
G75*
G02*
X62734850Y-38862000I-152400J0D01*
G01*
X60607650Y-38862000D01*
G75*
G02*
X60455250Y-38709600I0J152400D01*
G01*
X60455250Y-37490400D01*
G75*
G02*
X60607650Y-37338000I152400J0D01*
G01*
X62734850Y-37338000D01*
G75*
G02*
X62887250Y-37490400I0J-152400D01*
G01*
G37*
%TD.AperFunction*%
X62506250Y-38100000D03*
%TO.P,U1,6,GPIO7/SCL*%
%TO.N,unconnected-(U1-GPIO7{slash}SCL-Pad6)*%
%TA.AperFunction,SMDPad,CuDef*%
G36*
G01*
X62887250Y-40030400D02*
X62887250Y-41249600D01*
G75*
G02*
X62734850Y-41402000I-152400J0D01*
G01*
X60607650Y-41402000D01*
G75*
G02*
X60455250Y-41249600I0J152400D01*
G01*
X60455250Y-40030400D01*
G75*
G02*
X60607650Y-39878000I152400J0D01*
G01*
X62734850Y-39878000D01*
G75*
G02*
X62887250Y-40030400I0J-152400D01*
G01*
G37*
%TD.AperFunction*%
X62506250Y-40640000D03*
%TO.P,U1,7,GPIO0/TX*%
%TO.N,unconnected-(U1-GPIO0{slash}TX-Pad7)*%
%TA.AperFunction,SMDPad,CuDef*%
G36*
G01*
X62887250Y-42570400D02*
X62887250Y-43789600D01*
G75*
G02*
X62734850Y-43942000I-152400J0D01*
G01*
X60607650Y-43942000D01*
G75*
G02*
X60455250Y-43789600I0J152400D01*
G01*
X60455250Y-42570400D01*
G75*
G02*
X60607650Y-42418000I152400J0D01*
G01*
X62734850Y-42418000D01*
G75*
G02*
X62887250Y-42570400I0J-152400D01*
G01*
G37*
%TD.AperFunction*%
X62506250Y-43180000D03*
%TO.P,U1,8,GPIO1/RX*%
%TO.N,unconnected-(U1-GPIO1{slash}RX-Pad8)*%
X77746250Y-43180000D03*
%TA.AperFunction,SMDPad,CuDef*%
G36*
G01*
X77365250Y-43789600D02*
X77365250Y-42570400D01*
G75*
G02*
X77517650Y-42418000I152400J0D01*
G01*
X79644850Y-42418000D01*
G75*
G02*
X79797250Y-42570400I0J-152400D01*
G01*
X79797250Y-43789600D01*
G75*
G02*
X79644850Y-43942000I-152400J0D01*
G01*
X77517650Y-43942000D01*
G75*
G02*
X77365250Y-43789600I0J152400D01*
G01*
G37*
%TD.AperFunction*%
%TO.P,U1,9,GPIO2/SCK*%
%TO.N,Net-(U1-GPIO2{slash}SCK)*%
X77746250Y-40640000D03*
%TA.AperFunction,SMDPad,CuDef*%
G36*
G01*
X77365250Y-41249600D02*
X77365250Y-40030400D01*
G75*
G02*
X77517650Y-39878000I152400J0D01*
G01*
X79644850Y-39878000D01*
G75*
G02*
X79797250Y-40030400I0J-152400D01*
G01*
X79797250Y-41249600D01*
G75*
G02*
X79644850Y-41402000I-152400J0D01*
G01*
X77517650Y-41402000D01*
G75*
G02*
X77365250Y-41249600I0J152400D01*
G01*
G37*
%TD.AperFunction*%
%TO.P,U1,10,GPIO4/MISO*%
%TO.N,Net-(U1-GPIO4{slash}MISO)*%
X77746250Y-38100000D03*
%TA.AperFunction,SMDPad,CuDef*%
G36*
G01*
X77365250Y-38709600D02*
X77365250Y-37490400D01*
G75*
G02*
X77517650Y-37338000I152400J0D01*
G01*
X79644850Y-37338000D01*
G75*
G02*
X79797250Y-37490400I0J-152400D01*
G01*
X79797250Y-38709600D01*
G75*
G02*
X79644850Y-38862000I-152400J0D01*
G01*
X77517650Y-38862000D01*
G75*
G02*
X77365250Y-38709600I0J152400D01*
G01*
G37*
%TD.AperFunction*%
%TO.P,U1,11,GPIO3/MOSI*%
%TO.N,Net-(U1-GPIO3{slash}MOSI)*%
X77746250Y-35560000D03*
%TA.AperFunction,SMDPad,CuDef*%
G36*
G01*
X77365250Y-36169600D02*
X77365250Y-34950400D01*
G75*
G02*
X77517650Y-34798000I152400J0D01*
G01*
X79644850Y-34798000D01*
G75*
G02*
X79797250Y-34950400I0J-152400D01*
G01*
X79797250Y-36169600D01*
G75*
G02*
X79644850Y-36322000I-152400J0D01*
G01*
X77517650Y-36322000D01*
G75*
G02*
X77365250Y-36169600I0J152400D01*
G01*
G37*
%TD.AperFunction*%
%TO.P,U1,12,3V3*%
%TO.N,unconnected-(U1-3V3-Pad12)*%
X77746250Y-33020000D03*
%TA.AperFunction,SMDPad,CuDef*%
G36*
G01*
X77365250Y-33629600D02*
X77365250Y-32410400D01*
G75*
G02*
X77517650Y-32258000I152400J0D01*
G01*
X79644850Y-32258000D01*
G75*
G02*
X79797250Y-32410400I0J-152400D01*
G01*
X79797250Y-33629600D01*
G75*
G02*
X79644850Y-33782000I-152400J0D01*
G01*
X77517650Y-33782000D01*
G75*
G02*
X77365250Y-33629600I0J152400D01*
G01*
G37*
%TD.AperFunction*%
%TO.P,U1,13,GND*%
%TO.N,Net-(U1-GND)*%
X77746250Y-30480000D03*
%TA.AperFunction,SMDPad,CuDef*%
G36*
G01*
X77365250Y-31089600D02*
X77365250Y-29870400D01*
G75*
G02*
X77517650Y-29718000I152400J0D01*
G01*
X79644850Y-29718000D01*
G75*
G02*
X79797250Y-29870400I0J-152400D01*
G01*
X79797250Y-31089600D01*
G75*
G02*
X79644850Y-31242000I-152400J0D01*
G01*
X77517650Y-31242000D01*
G75*
G02*
X77365250Y-31089600I0J152400D01*
G01*
G37*
%TD.AperFunction*%
%TO.P,U1,14,VBUS*%
%TO.N,unconnected-(U1-VBUS-Pad14)*%
X77746250Y-27940000D03*
%TA.AperFunction,SMDPad,CuDef*%
G36*
G01*
X77365250Y-28549600D02*
X77365250Y-27330400D01*
G75*
G02*
X77517650Y-27178000I152400J0D01*
G01*
X79644850Y-27178000D01*
G75*
G02*
X79797250Y-27330400I0J-152400D01*
G01*
X79797250Y-28549600D01*
G75*
G02*
X79644850Y-28702000I-152400J0D01*
G01*
X77517650Y-28702000D01*
G75*
G02*
X77365250Y-28549600I0J152400D01*
G01*
G37*
%TD.AperFunction*%
%TD*%
D10*
%TO.P,SW4,1,1*%
%TO.N,Net-(U1-GND)*%
X83185000Y-71120000D03*
%TO.P,SW4,2,2*%
%TO.N,Net-(U1-GPIO2{slash}SCK)*%
X76835000Y-73660000D03*
%TD*%
%TO.P,SW2,1,1*%
%TO.N,Net-(U1-GND)*%
X64135000Y-52070000D03*
%TO.P,SW2,2,2*%
%TO.N,Net-(U1-GPIO3{slash}MOSI)*%
X57785000Y-54610000D03*
%TD*%
%TO.P,SW3,1,1*%
%TO.N,Net-(U1-GND)*%
X83185000Y-52070000D03*
%TO.P,SW3,2,2*%
%TO.N,Net-(U1-GPIO4{slash}MISO)*%
X76835000Y-54610000D03*
%TD*%
D12*
%TO.N,Net-(U1-GND)*%
X83185000Y-69215000D02*
X83343750Y-69056250D01*
X83185000Y-52070000D02*
X69373750Y-52070000D01*
X69373750Y-52070000D02*
X69056250Y-52387500D01*
%TO.N,Net-(U1-GPIO4{slash}MISO)*%
X69056250Y-85725000D02*
X90487500Y-85725000D01*
X85725000Y-66675000D02*
X85725000Y-73818750D01*
X69056250Y-71437500D02*
X69056250Y-85725000D01*
X79836876Y-41703000D02*
X80098250Y-41441626D01*
X78581250Y-71437500D02*
X69056250Y-71437500D01*
X77305940Y-41703000D02*
X79836876Y-41703000D01*
X73818750Y-66675000D02*
X85725000Y-66675000D01*
X85725000Y-73818750D02*
X80962500Y-73818750D01*
X77139840Y-29016000D02*
X76282250Y-29873590D01*
X73977500Y-54610000D02*
X73818750Y-54768750D01*
X76835000Y-54610000D02*
X73977500Y-54610000D01*
X73818750Y-54768750D02*
X73818750Y-66675000D01*
X80962500Y-73818750D02*
X78581250Y-71437500D01*
X90487500Y-85725000D02*
X90487500Y-36965800D01*
X76282250Y-29873590D02*
X76282250Y-40679310D01*
X80098250Y-39374370D02*
X78823880Y-38100000D01*
X90487500Y-36965800D02*
X82537700Y-29016000D01*
X82537700Y-29016000D02*
X77139840Y-29016000D01*
X76282250Y-40679310D02*
X77305940Y-41703000D01*
X78823880Y-38100000D02*
X77746250Y-38100000D01*
X80098250Y-41441626D02*
X80098250Y-39374370D01*
%TO.N,Net-(U1-GPIO2{slash}SCK)*%
X76835000Y-73660000D02*
X71596250Y-73660000D01*
X82371600Y-29417000D02*
X77305940Y-29417000D01*
X71596250Y-73660000D02*
X71437500Y-73818750D01*
X88106250Y-83343750D02*
X88106250Y-35151650D01*
X71437500Y-73818750D02*
X71437500Y-83343750D01*
X71437500Y-83343750D02*
X88106250Y-83343750D01*
X88106250Y-35151650D02*
X82371600Y-29417000D01*
X76683250Y-38742000D02*
X78581250Y-40640000D01*
X77305940Y-29417000D02*
X76683250Y-30039690D01*
X76683250Y-30039690D02*
X76683250Y-38742000D01*
%TO.N,Net-(U1-GND)*%
X83185000Y-52070000D02*
X85407500Y-52070000D01*
X85725000Y-33337500D02*
X82867500Y-30480000D01*
X82867500Y-30480000D02*
X77746250Y-30480000D01*
X85407500Y-52070000D02*
X85725000Y-52387500D01*
X85725000Y-52387500D02*
X85725000Y-33337500D01*
X64135000Y-71120000D02*
X64135000Y-66833750D01*
X64135000Y-66833750D02*
X64293750Y-66675000D01*
X64293750Y-66675000D02*
X69056250Y-66675000D01*
X69056250Y-66675000D02*
X69056250Y-52387500D01*
X69056250Y-52387500D02*
X68738750Y-52070000D01*
X68738750Y-52070000D02*
X64135000Y-52070000D01*
%TO.N,Net-(U1-GPIO3{slash}MOSI)*%
X83343750Y-45243750D02*
X83343750Y-35718750D01*
X57150000Y-50006250D02*
X71437500Y-50006250D01*
X71437500Y-50006250D02*
X71437500Y-47625000D01*
X83343750Y-35718750D02*
X83185000Y-35560000D01*
X57785000Y-50641250D02*
X57150000Y-50006250D01*
X57785000Y-54610000D02*
X57785000Y-50641250D01*
X71437500Y-47625000D02*
X80962500Y-47625000D01*
X83185000Y-35560000D02*
X77746250Y-35560000D01*
X80962500Y-47625000D02*
X83343750Y-45243750D01*
%TO.N,Net-(U1-GPIO26{slash}ADC0{slash}A0)*%
X57785000Y-73660000D02*
X52546250Y-73660000D01*
X54768750Y-28575000D02*
X55403750Y-27940000D01*
X52387500Y-73818750D02*
X52387500Y-28575000D01*
X52546250Y-73660000D02*
X52387500Y-73818750D01*
X52387500Y-28575000D02*
X54768750Y-28575000D01*
X55403750Y-27940000D02*
X62506250Y-27940000D01*
%TO.N,Net-(U1-GND)*%
X83343750Y-69056250D02*
X64293750Y-69056250D01*
X83185000Y-71120000D02*
X83185000Y-69215000D01*
X64293750Y-69056250D02*
X64135000Y-69215000D01*
X64135000Y-69215000D02*
X64135000Y-71120000D01*
%TD*%
M02*
